<?xml version="1.0" standalone="no"?>
<!DOCTYPE svg PUBLIC "-//W3C//DTD SVG 20010904//EN"
 "http://www.w3.org/TR/2001/REC-SVG-20010904/DTD/svg10.dtd">
<svg version="1.0" xmlns="http://www.w3.org/2000/svg"
 width="300.000000pt" height="300.000000pt" viewBox="0 0 300.000000 300.000000"
 preserveAspectRatio="xMidYMid meet">

<g transform="translate(0.000000,300.000000) scale(0.100000,-0.100000)"
fill="#000000" stroke="none">
<path d="M1669 2481 c-17 -13 -23 -29 -23 -56 0 -55 25 -71 124 -78 209 -16
321 -141 320 -356 -1 -125 -39 -197 -133 -251 -116 -67 -72 -64 -942 -70
l-790 -5 -55 -31 c-191 -108 -200 -379 -17 -484 51 -29 55 -30 199 -30 146 0
147 0 167 26 28 35 26 69 -4 99 -23 24 -30 25 -145 25 -67 0 -130 5 -141 10
-10 6 -28 29 -39 51 -17 33 -19 46 -11 77 6 20 18 48 27 61 37 52 26 51 836
51 834 0 817 -1 955 66 209 100 297 324 227 574 -60 211 -237 340 -468 340
-47 0 -70 -5 -87 -19z"/>
<path d="M2634 2067 c-20 -17 -27 -33 -27 -57 0 -39 40 -80 79 -80 81 0 158
-93 134 -164 -6 -18 -22 -44 -36 -57 -25 -24 -29 -24 -266 -29 -223 -5 -241
-6 -254 -24 -24 -33 -18 -82 13 -106 26 -21 35 -21 273 -18 229 3 248 4 285
25 118 63 173 210 126 335 -37 97 -118 163 -229 187 -69 14 -67 15 -98 -12z"/>
<path d="M745 1235 c-30 -29 -32 -74 -6 -106 l19 -24 497 -5 497 -5 28 -32
c34 -37 50 -89 50 -156 0 -96 -54 -157 -176 -197 -92 -31 -117 -77 -73 -134
15 -19 30 -26 53 -26 82 0 227 76 281 146 51 67 69 122 68 214 0 132 -43 231
-128 296 -70 53 -73 53 -598 54 l-488 0 -24 -25z"/>
</g>
</svg>
